<svg xmlns="http://www.w3.org/2000/svg" width="192.56" height="29.36" viewBox="0 0 192.56 29.36"><path d="M17.44-28.8q4.56,0,6.48,2a5.361,5.361,0,0,1,1.44,3.84,9.4,9.4,0,0,1-.16,1.68l-.56,3.12a10.085,10.085,0,0,1-1.66,4.2,7.06,7.06,0,0,1-2.62,2.28L24,0H15.92L12.56-10.76H10.08L8.44,0H.76L5.84-28.8Zm-2.52,6.24h-3L10.88-15.6h2.8a3.924,3.924,0,0,0,3.04-1.02,3.878,3.878,0,0,0,.92-2.7Q17.64-22.56,14.92-22.56ZM34.2.56q-8.32,0-8.32-5.76a10.071,10.071,0,0,1,.16-1.72l.84-4.96a8.84,8.84,0,0,1,3.54-5.9A12.7,12.7,0,0,1,38-19.84q8.04,0,8.04,6.08a12.691,12.691,0,0,1-.16,1.92L45.4-9H33.2l-.16.92a5.386,5.386,0,0,0-.08.88q0,2.2,2.6,2.2a2.393,2.393,0,0,0,1.64-.6A2.292,2.292,0,0,0,38-7l6.64.08Q43.32.56,34.2.56Zm4.8-12a5.526,5.526,0,0,0,.16-1.26,1.823,1.823,0,0,0-.52-1.18,2.086,2.086,0,0,0-1.66-.6,3.231,3.231,0,0,0-2.08.76,4,4,0,0,0-1.3,2.28Zm21.08-.84q0-1.72-1.66-1.72a3.475,3.475,0,0,0-2.74,1.24L53.44,0h-6.8l3.4-19.24h6.32l-.44,2.36a7.347,7.347,0,0,1,5.96-2.92q3.6,0,4.68,1.76a4.834,4.834,0,0,1,.68,2.56,16.856,16.856,0,0,1-.2,2.68L65.96-6.64a2.693,2.693,0,0,0-.04.44q0,1.08,1.2,1.08a3.32,3.32,0,0,0,1.64-.4L68.56-1A6.518,6.518,0,0,1,64.28.56Q58.84.56,58.84-4A10.071,10.071,0,0,1,59-5.72l.96-5.32A7.7,7.7,0,0,0,60.08-12.28Zm22-7.52q4.32,0,6.52,1.88a5.145,5.145,0,0,1,1.72,4.12,10.218,10.218,0,0,1-.2,1.92L89.28-7.2q-.76,4.24-3.54,6A13.733,13.733,0,0,1,78.32.56q-4.64,0-6.8-1.76a4.836,4.836,0,0,1-1.6-3.96,11.691,11.691,0,0,1,.2-2.04l.84-4.68Q72.36-19.8,82.08-19.8Zm1.08,8.72a5.352,5.352,0,0,0,.08-1.02,2.515,2.515,0,0,0-.52-1.38,2.047,2.047,0,0,0-1.82-.76,3,3,0,0,0-2.18.86,4.041,4.041,0,0,0-1.12,2.3l-.52,3A5.352,5.352,0,0,0,77-7.06a2.338,2.338,0,0,0,.52,1.34A2.1,2.1,0,0,0,79.34-5a2.927,2.927,0,0,0,2.18-.9,4.135,4.135,0,0,0,1.12-2.18ZM110.24-28.8q4.56,0,6.48,2a5.361,5.361,0,0,1,1.44,3.84,9.4,9.4,0,0,1-.16,1.68l-.36,1.92a6.762,6.762,0,0,1-1.7,3.56,3.445,3.445,0,0,1-2.22,1.28l-.04.32a3.239,3.239,0,0,1,2.28,1.24,4.134,4.134,0,0,1,1.16,2.92,7,7,0,0,1-.16,1.44l-.24,1.24a8.731,8.731,0,0,1-3.06,5.4A10.433,10.433,0,0,1,106.92,0H93.56l5.08-28.8Zm-3.6,17.04h-3.8l-.96,5.52h3.96a4.559,4.559,0,0,0,2.92-.86,2.6,2.6,0,0,0,1.08-2.1Q109.84-11.76,106.64-11.76Zm1.08-10.8h-3l-1.04,5.96h2.96q3.84,0,3.84-3.36a2.583,2.583,0,0,0-.7-1.88A2.746,2.746,0,0,0,107.72-22.56ZM138.92,0H118.84l5.08-28.8H144l-1.12,6.24H130l-.92,5.4h10.64l-1.12,6.24H127.96l-.8,4.68h12.88Zm18.84,0L158-6.28h-6.68L149.36,0h-7.64L152-28.8h13.2L165.36,0Zm-1.64-21.8-3.16,10.16h5.24l.44-10.16Zm31.76,11.24H177.24L175.4,0h-7.24l5.08-28.8h20.08l-1.12,6.24H179.32l-1,5.76h10.64Z" transform="translate(-0.76 28.8)" fill="#004c7a"/></svg>