<svg xmlns="http://www.w3.org/2000/svg" width="32" height="32" viewBox="0 0 32 32">
  <g id="グループ_1" data-name="グループ 1" transform="translate(-896 -583)">
    <rect id="長方形_1" data-name="長方形 1" width="32" height="32" transform="translate(896 583)" fill="none"/>
    <path id="パス_1" data-name="パス 1" d="M18,3S8.1,11.544,2.571,16.171A1.666,1.666,0,0,0,2,17.4,1.6,1.6,0,0,0,3.6,19H6.8V30.2a1.6,1.6,0,0,0,1.6,1.6h4.8a1.6,1.6,0,0,0,1.6-1.6V23.8h6.4v6.4a1.6,1.6,0,0,0,1.6,1.6h4.8a1.6,1.6,0,0,0,1.6-1.6V19h3.2A1.6,1.6,0,0,0,34,17.4a1.568,1.568,0,0,0-.613-1.229C27.894,11.544,18,3,18,3Z" transform="translate(894 582)" fill="#444"/>
  </g>
</svg>
