<svg xmlns="http://www.w3.org/2000/svg" width="32" height="31.992" viewBox="0 0 32 31.992"><path d="M27.9,19.283a1.524,1.524,0,0,0-1.523,1.524v.579L24.12,19.131a4.249,4.249,0,0,0-5.987,0L17.066,20.2l-3.778-3.779a4.341,4.341,0,0,0-5.987,0L5.047,18.674V10.14A1.524,1.524,0,0,1,6.57,8.616H17.234a1.524,1.524,0,0,0,0-3.048H6.57A4.571,4.571,0,0,0,2,10.14V28.426A4.571,4.571,0,0,0,6.57,33H24.851a4.571,4.571,0,0,0,4.57-4.571V20.807A1.524,1.524,0,0,0,27.9,19.283ZM6.57,29.95a1.524,1.524,0,0,1-1.523-1.524v-5.44l4.418-4.419a1.2,1.2,0,0,1,1.66,0l4.829,4.83h0L22.5,29.95Zm19.8-1.524a1.356,1.356,0,0,1-.274.808l-6.87-6.9L20.3,21.264a1.173,1.173,0,0,1,1.676,0l4.4,4.434ZM33.549,6.011l-4.57-4.571a1.575,1.575,0,0,0-2.163,0l-4.57,4.571a1.53,1.53,0,0,0,2.163,2.164l1.965-1.981v8.518a1.523,1.523,0,1,0,3.047,0V6.194l1.965,1.981a1.53,1.53,0,1,0,2.163-2.164Z" transform="translate(-2 -1.005)" fill="#444"/></svg>