<svg xmlns="http://www.w3.org/2000/svg" width="24" height="22.8" viewBox="0 0 24 22.8"><path d="M25.982,11.589a1.12,1.12,0,0,0-.959-1.314l-6.835-.956L15.07,3.105a.935.935,0,0,0-.48-.478,1.216,1.216,0,0,0-1.679.478l-3,6.213-6.835.956a.726.726,0,0,0-.719.358,1.152,1.152,0,0,0,0,1.673l4.916,4.779L6.077,23.9a1.511,1.511,0,0,0,.12.717,1.216,1.216,0,0,0,1.679.478l6.115-3.226,6.115,3.226a.9.9,0,0,0,.6.119h.24a1.24,1.24,0,0,0,.959-1.434l-1.2-6.811,4.916-4.779A.657.657,0,0,0,25.982,11.589Z" transform="translate(-2 -2.459)" fill="#edba61"/></svg>