<svg xmlns="http://www.w3.org/2000/svg" width="24" height="22.8" viewBox="0 0 24 22.8"><path d="M26.057,11.632a1.2,1.2,0,0,0-1.021-1.36l-6.83-.989L15.155,3.121a1.247,1.247,0,0,0-.457-.453,1.26,1.26,0,0,0-1.713.454L9.934,9.283l-6.83.989a1.213,1.213,0,0,0-.687.346,1.191,1.191,0,0,0,.016,1.694l4.946,4.805L6.212,23.9a1.185,1.185,0,0,0-.017.2,1.208,1.208,0,0,0,1.773,1.063l6.1-3.2,6.1,3.2a1.218,1.218,0,0,0,.77.123,1.2,1.2,0,0,0,.988-1.381l-1.167-6.783,4.947-4.806A1.2,1.2,0,0,0,26.057,11.632Zm-6.367,4.85a.6.6,0,0,0-.173.529l1.22,7.09-6.385-3.345a.616.616,0,0,0-.564,0L7.4,24.1l1.22-7.091a.6.6,0,0,0-.173-.529L3.279,11.459l7.145-1.035a.608.608,0,0,0,.456-.33L14.07,3.649l3.191,6.444a.608.608,0,0,0,.456.33l7.146,1.034Z" transform="translate(-2.07 -2.501)" fill="#ccc"/></svg>